<?xml version="1.0" encoding="UTF-8"?>
<svg version="1.1" xmlns="http://www.w3.org/2000/svg" width="512" height="512">
<path d="M0 0 C2.99097304 2.54232708 3.84202557 4.1574697 4.5625 8 C3.81258191 11.99956315 2.21145104 13.72047316 -1 16 C-2.88692433 17.07824248 -4.78392154 18.13893941 -6.6875 19.1875 C-22.30903538 28.10040055 -31.1908555 43.00404616 -36 60 C-39.12581719 72.06212522 -39.34301971 83.60047278 -39 96 C-38.81566406 95.13761719 -38.63132813 94.27523437 -38.44140625 93.38671875 C-32.69237539 69.18968662 -19.99919926 48.50687243 1.125 34.875 C12.29640999 28.26711759 27.68382175 19.49250812 41 21 C47.74738431 23.21035003 51.86318971 26.53505378 55.125 32.8125 C56.98931187 36.79121435 58.52277375 40.86376651 60 45 C60.79921875 44.73445313 61.5984375 44.46890625 62.421875 44.1953125 C79.86120524 38.58688939 101.11953588 34.94753248 118.3984375 43.13671875 C122.38401551 45.41727512 125.41815958 47.55107381 127 52 C128.77515983 65.74480901 122.83170027 80.89758432 114.63525391 91.81835938 C110.25927775 97.11441257 105.44393728 101.80179251 100 106 C100.92039062 106.32871094 101.84078125 106.65742188 102.7890625 106.99609375 C126.50825707 115.7754813 142.9673712 131.49988672 153.625 154.4375 C154.4301739 156.28584118 155.2274756 158.13777655 156 160 C157.5159375 159.2265625 157.5159375 159.2265625 159.0625 158.4375 C163.1659289 156.74207129 165.64544753 156.69363426 170 158 C183.97459893 165.27014367 193.69157133 176.63477111 199.2265625 191.37109375 C200.40278702 195.369069 201.03690401 199.40782722 201.60546875 203.53125 C201.87246677 205.99531892 201.87246677 205.99531892 203 208 C203.65484375 207.17757812 204.3096875 206.35515625 204.984375 205.5078125 C217.5142135 190.05767762 234.32438845 175.3437275 254.828125 172.625 C258.76556288 172.44079238 261.20335831 172.52580852 264.625 174.5625 C266.54211763 177.96102671 266.54861638 180.15968535 266 184 C262.93399378 187.99258795 259.68031785 188.99188249 254.9375 190.375 C241.1312031 194.68320585 228.74502041 202.23945532 220 214 C220.64324219 213.67386719 221.28648437 213.34773437 221.94921875 213.01171875 C236.43136654 206.00822645 250.27459742 204.23614702 265.9375 207.75 C266.64745117 207.90670166 267.35740234 208.06340332 268.08886719 208.22485352 C273.66164591 209.60090524 278.17487408 211.74901136 281.875 216.3125 C284.06222443 221.53753613 283.26972017 225.76863994 281.375 230.9375 C275.39037667 244.77562903 265.06412791 250.87562381 252 257 C254.038297 258.55897145 256.0856853 260.05667256 258.2265625 261.47265625 C271.02416608 269.9557583 281.8274812 281.32598736 286.33984375 296.30859375 C288.73201263 309.68492267 287.93028031 323.33534246 283 336 C282.5875 337.12148438 282.175 338.24296875 281.75 339.3984375 C275.81609208 354.40178423 266.74656629 367.09507642 256 379 C255.04663447 380.07530763 254.0935102 381.15082921 253.140625 382.2265625 C227.6051043 410.72769459 188.09095833 435.81248955 149.02734375 438.18017578 C127.81621351 439.07035408 109.39516091 436.28793965 91 425 C90.36835938 425.60585938 89.73671875 426.21171875 89.0859375 426.8359375 C62.14113669 452.07242241 29.9478249 465.07492081 -6.96875 464.28515625 C-14.85439106 463.99030828 -22.35086515 462.90525153 -30 461 C-30.68433105 460.83371094 -31.36866211 460.66742188 -32.07373047 460.49609375 C-75.84411562 449.55602988 -115.09714865 418.86421904 -144 385 C-144.80050781 384.08863281 -145.60101563 383.17726563 -146.42578125 382.23828125 C-186.45961755 336.32168074 -216.32614305 275.94056817 -213 214 C-210.65015065 192.72806131 -200.65762189 173.30933752 -184.16015625 159.6484375 C-183.44730469 159.10445312 -182.73445313 158.56046875 -182 158 C-183.09054688 157.58041016 -183.09054688 157.58041016 -184.203125 157.15234375 C-201.18119234 150.38288357 -216.21819832 140.71345902 -224.12890625 123.55078125 C-225.93144435 118.27249703 -225.84312857 113.00744897 -223.6875 107.875 C-210.95791593 94.25730541 -193.05623578 88.84769991 -175 87 C-172.35570737 86.91301669 -169.73632879 86.93421766 -167.09179688 86.97094727 C-166.05635742 86.98532837 -166.05635742 86.98532837 -165 87 C-165.04640625 85.70964844 -165.0928125 84.41929688 -165.140625 83.08984375 C-165.17816434 81.37241912 -165.21456217 79.65496928 -165.25 77.9375 C-165.28351563 77.08994141 -165.31703125 76.24238281 -165.3515625 75.36914062 C-165.4447288 69.33662252 -164.49511607 65.94555729 -161 61 C-152.18588391 52.63788986 -140.77254833 54.53420332 -129.42578125 54.6875 C-115.42182459 55.1121304 -103.3631163 58.32492097 -91 65 C-90.11957031 65.46277344 -89.23914063 65.92554687 -88.33203125 66.40234375 C-81.75286552 70.08463651 -76.41474351 74.78941895 -71 80 C-69.91332031 81.02673828 -69.91332031 81.02673828 -68.8046875 82.07421875 C-64.34434021 86.39041033 -60.66367922 90.99918392 -57 96 C-56.96261719 94.69289063 -56.92523438 93.38578125 -56.88671875 92.0390625 C-55.86341677 62.20025136 -50.042149 35.44997186 -28 14 C-26.98292969 12.98679687 -26.98292969 12.98679687 -25.9453125 11.953125 C-19.08840697 5.52299783 -9.82770354 -2.10593647 0 0 Z " fill="#FEA0AB" transform="translate(225,24)"/>
<path d="M0 0 C2.99097304 2.54232708 3.84202557 4.1574697 4.5625 8 C3.81258191 11.99956315 2.21145104 13.72047316 -1 16 C-2.88692433 17.07824248 -4.78392154 18.13893941 -6.6875 19.1875 C-22.30903538 28.10040055 -31.1908555 43.00404616 -36 60 C-39.12581719 72.06212522 -39.34301971 83.60047278 -39 96 C-38.81566406 95.13761719 -38.63132813 94.27523437 -38.44140625 93.38671875 C-32.69237539 69.18968662 -19.99919926 48.50687243 1.125 34.875 C12.29640999 28.26711759 27.68382175 19.49250812 41 21 C47.74738431 23.21035003 51.86318971 26.53505378 55.125 32.8125 C56.98931187 36.79121435 58.52277375 40.86376651 60 45 C60.79921875 44.73445313 61.5984375 44.46890625 62.421875 44.1953125 C79.86120524 38.58688939 101.11953588 34.94753248 118.3984375 43.13671875 C122.38401551 45.41727512 125.41815958 47.55107381 127 52 C128.78050514 65.78619692 122.79854488 80.83353327 114.65136719 91.81835938 C103.51467359 105.47875277 103.51467359 105.47875277 96.90234375 106.2421875 C96.25394531 106.12101562 95.60554688 105.99984375 94.9375 105.875 C94.15890625 105.74996094 93.3803125 105.62492187 92.578125 105.49609375 C91.72734375 105.33238281 90.8765625 105.16867188 90 105 C54.85802169 98.29919905 27.95290731 110.2608956 -2.34375 126.90625 C-18.54597786 135.79903905 -33.39600829 143.20385921 -52.25 143.1875 C-53.70176636 143.1862915 -53.70176636 143.1862915 -55.18286133 143.18505859 C-66.99548195 143.08625685 -78.67925408 141.89550392 -90.25 139.46484375 C-108.92748782 136.30771158 -132.08095743 135.1975863 -150 142 C-150.6595166 142.24669434 -151.3190332 142.49338867 -151.99853516 142.74755859 C-159.43614196 145.5869918 -166.03110666 148.85149876 -172.5 153.5 C-178.40188203 157.58530812 -178.40188203 157.58530812 -182 157.3125 C-183.8828125 156.80859375 -183.8828125 156.80859375 -186 156 C-186.92554688 155.68160156 -187.85109375 155.36320313 -188.8046875 155.03515625 C-203.89422041 149.33338618 -217.27515886 138.37431297 -224.13671875 123.54296875 C-225.92852783 118.2648343 -225.84192506 113.00458346 -223.6875 107.875 C-210.95791593 94.25730541 -193.05623578 88.84769991 -175 87 C-172.35570737 86.91301669 -169.73632879 86.93421766 -167.09179688 86.97094727 C-166.05635742 86.98532837 -166.05635742 86.98532837 -165 87 C-165.04640625 85.70964844 -165.0928125 84.41929688 -165.140625 83.08984375 C-165.17816434 81.37241912 -165.21456217 79.65496928 -165.25 77.9375 C-165.28351563 77.08994141 -165.31703125 76.24238281 -165.3515625 75.36914062 C-165.4447288 69.33662252 -164.49511607 65.94555729 -161 61 C-152.18588391 52.63788986 -140.77254833 54.53420332 -129.42578125 54.6875 C-115.42182459 55.1121304 -103.3631163 58.32492097 -91 65 C-90.11957031 65.46277344 -89.23914063 65.92554687 -88.33203125 66.40234375 C-81.75286552 70.08463651 -76.41474351 74.78941895 -71 80 C-69.91332031 81.02673828 -69.91332031 81.02673828 -68.8046875 82.07421875 C-64.34434021 86.39041033 -60.66367922 90.99918392 -57 96 C-56.96261719 94.69289063 -56.92523438 93.38578125 -56.88671875 92.0390625 C-55.86341677 62.20025136 -50.042149 35.44997186 -28 14 C-26.98292969 12.98679687 -26.98292969 12.98679687 -25.9453125 11.953125 C-19.08840697 5.52299783 -9.82770354 -2.10593647 0 0 Z " fill="#70DFA2" transform="translate(225,24)"/>
<path d="M0 0 C4.36500888 3.67053933 8.53041962 7.46402693 12.625 11.4375 C24.58730322 22.57756065 37.47129553 26.10768967 53.4375 27.8125 C75.71611839 30.30548434 94.28786559 36.62651296 109 54 C119.69235122 67.79409635 121.50558784 82.01205821 120 99 C119.28353864 103.88577547 117.7887491 108.40515076 116 113 C115.38125 114.68222656 115.38125 114.68222656 114.75 116.3984375 C108.81609208 131.40178423 99.74656629 144.09507642 89 156 C88.04663447 157.07530763 87.0935102 158.15082921 86.140625 159.2265625 C60.6051043 187.72769459 21.09095833 212.81248955 -17.97265625 215.18017578 C-37.9465069 216.01842854 -58.38438406 214.46171196 -75 202 C-74.44288737 198.20150476 -72.9156256 196.67728035 -70.125 194.125 C-55.45699313 179.89866053 -44.5565054 161.91790042 -35 144 C-34.65727051 143.35981934 -34.31454102 142.71963867 -33.96142578 142.06005859 C-28.12415795 131.05335779 -23.37376787 119.65883482 -19 108 C-18.60159912 106.94417725 -18.20319824 105.88835449 -17.79272461 104.80053711 C-14.64731732 96.25784904 -12.11760089 87.64746859 -9.9375 78.8125 C-9.76635681 78.12169342 -9.59521362 77.43088684 -9.41888428 76.71914673 C-3.18196367 51.33736767 -1.12292906 26.03049994 0 0 Z " fill="#FE6E7F" transform="translate(392,247)"/>
<path d="M0 0 C-3.61259982 2.81926399 -7.43943092 4.7324047 -11.5625 6.6875 C-33.68280719 17.49748048 -48.60937679 33.82992411 -57.39453125 56.6171875 C-63.49838985 77.36599308 -61.71926447 103.41339645 -56 124 C-55.7723999 124.86077148 -55.5447998 125.72154297 -55.31030273 126.60839844 C-43.83979489 169.67483831 -21.37052142 208.65173867 8 242 C8.99580078 243.16208984 8.99580078 243.16208984 10.01171875 244.34765625 C21.19275995 257.15423192 33.35669024 269.8163834 47 280 C47.56106445 280.42684082 48.12212891 280.85368164 48.70019531 281.29345703 C57.15016172 287.71731626 65.75055958 293.76679459 75 299 C75.75522949 299.42812988 76.51045898 299.85625977 77.28857422 300.29736328 C95.16521367 310.31066633 114.44477146 318.66417857 135 321 C135 321.66 135 322.32 135 323 C133.16830682 323.48539869 131.33453941 323.96297186 129.5 324.4375 C127.96859375 324.83775391 127.96859375 324.83775391 126.40625 325.24609375 C109.20476367 329.05330345 90.04470665 328.24550673 73 324 C72.31566895 323.83371094 71.63133789 323.66742188 70.92626953 323.49609375 C27.15588438 312.55602988 -12.09714865 281.86421904 -41 248 C-41.80050781 247.08863281 -42.60101563 246.17726563 -43.42578125 245.23828125 C-83.45961755 199.32168074 -113.32614305 138.94056817 -110 77 C-107.68189332 56.01541081 -97.90207389 36.42425946 -81.5234375 22.96484375 C-79.06766904 21.2090093 -76.56454701 19.59243996 -74 18 C-73.00226563 17.34386719 -72.00453125 16.68773437 -70.9765625 16.01171875 C-63.31120195 11.08398697 -55.55790967 7.13728142 -47 4 C-45.89398438 3.58492187 -44.78796875 3.16984375 -43.6484375 2.7421875 C-29.63420928 -1.62390103 -14.512399 -0.35542801 0 0 Z " fill="#FE6E80" transform="translate(122,161)"/>
<path d="M0 0 C13.98328297 7.18961643 23.71046143 18.68506398 29.2265625 33.37109375 C30.40278702 37.369069 31.03690401 41.40782722 31.60546875 45.53125 C31.87246677 47.99531892 31.87246677 47.99531892 33 50 C33.65484375 49.17757812 34.3096875 48.35515625 34.984375 47.5078125 C47.5142135 32.05767762 64.32438845 17.3437275 84.828125 14.625 C88.76556288 14.44079238 91.20335831 14.52580852 94.625 16.5625 C96.54211763 19.96102671 96.54861638 22.15968535 96 26 C92.93399378 29.99258795 89.68031785 30.99188249 84.9375 32.375 C71.1312031 36.68320585 58.74502041 44.23945532 50 56 C50.64324219 55.67386719 51.28648437 55.34773438 51.94921875 55.01171875 C66.43136654 48.00822645 80.27459742 46.23614702 95.9375 49.75 C97.00242676 49.98505249 97.00242676 49.98505249 98.08886719 50.22485352 C103.66164591 51.60090524 108.17487408 53.74901136 111.875 58.3125 C114.06222443 63.53753613 113.26972017 67.76863994 111.375 72.9375 C105.58478746 86.32609672 95.16823006 93.63117723 82 99 C75.9914085 100.04911915 71.22741307 98.31969266 65.41137695 96.63769531 C59.74645741 95.05370171 54.07638065 94.20080383 48.25 93.4375 C27.68056393 90.67468688 15.61450293 83.50465184 1 69 C0.28948486 68.38938721 -0.42103027 67.77877441 -1.15307617 67.1496582 C-3.47051385 64.45236293 -3.60001963 62.88348432 -3.8359375 59.36328125 C-3.9275415 58.24026611 -4.01914551 57.11725098 -4.11352539 55.96020508 C-4.19981201 54.7564624 -4.28609863 53.55271973 -4.375 52.3125 C-5.51205746 39.36721445 -7.99631267 27.17672257 -11.32080078 14.63525391 C-12.31514984 10.77723675 -13.16170891 6.89464426 -14 3 C-9.37700624 -0.66651229 -5.7159679 -1.83616392 0 0 Z " fill="#4FBE68" transform="translate(395,182)"/>
<path d="M0 0 C2.99755262 2.50171685 4.32693147 4.5070533 4.83203125 8.41796875 C5.47741713 23.95687485 -1.68011208 39.74094519 -12.06640625 51.05078125 C-20.56031639 59.96814145 -20.56031639 59.96814145 -25.5390625 60.54296875 C-26.51166016 60.36121094 -26.51166016 60.36121094 -27.50390625 60.17578125 C-28.2825 60.05074219 -29.06109375 59.92570312 -29.86328125 59.796875 C-30.7140625 59.63316406 -31.56484375 59.46945313 -32.44140625 59.30078125 C-48.68444297 56.20359205 -64.40671245 56.21922283 -80.44140625 60.30078125 C-79.06911089 56.56060371 -77.32193948 53.40973004 -75.19140625 50.05078125 C-72.21155627 45.01994666 -70.00931856 40.00000405 -68.06640625 34.48828125 C-67.69080566 33.43108887 -67.69080566 33.43108887 -67.30761719 32.35253906 C-64.74687218 24.79851938 -64.24607209 17.27841376 -63.87890625 9.36328125 C-63.83572266 8.48865234 -63.79253906 7.61402344 -63.74804688 6.71289062 C-63.64293724 4.5756613 -63.5417664 2.43823887 -63.44140625 0.30078125 C-59.13476891 -1.62643896 -55.0420286 -3.21077026 -50.44140625 -4.32421875 C-49.47203125 -4.56398438 -48.50265625 -4.80375 -47.50390625 -5.05078125 C-32.37840069 -8.25337554 -13.19247031 -9.29781171 0 0 Z " fill="#4FBF69" transform="translate(347.44140625,69.69921875)"/>
<path d="M0 0 C0.94875 0.00902344 1.8975 0.01804687 2.875 0.02734375 C3.57625 0.03894531 4.2775 0.05054687 5 0.0625 C5.27972656 0.93390625 5.55945312 1.8053125 5.84765625 2.703125 C12.70426889 23.07454006 25.23678269 36.85694392 42 50.0625 C40.73027344 50.28164062 39.46054688 50.50078125 38.15234375 50.7265625 C21.88676166 53.66763623 6.03423395 58.14944966 -7.11328125 68.76953125 C-9.66909348 70.5210299 -11.62695218 70.21503995 -14.6015625 69.6953125 C-30.74986886 65.43468444 -43.77889323 55.09497196 -52.80859375 41.203125 C-56.00474269 35.46053608 -56.78811374 30.56706541 -56 24.0625 C-52.32642507 15.31589304 -41.48570265 9.72524136 -33.09375 6.15625 C-22.47324751 2.4015269 -11.30095331 -0.14126192 0 0 Z " fill="#4FBF69" transform="translate(56,110.9375)"/>
<path d="M0 0 C13.93126521 7.16287108 23.8506954 18.70600118 29.21875 33.421875 C34.63011108 51.27936657 31.04971628 70.08068092 24 87 C17.66272078 84.18343146 13.18970197 80.82858393 8.25 76 C7.60417969 75.38382812 6.95835937 74.76765625 6.29296875 74.1328125 C4.51686573 72.43329708 2.75272537 70.72359698 1 69 C-0.06903564 68.08190552 -0.06903564 68.08190552 -1.15966797 67.14526367 C-3.47098429 64.45097653 -3.60041404 62.87759922 -3.8359375 59.36328125 C-3.9275415 58.24026611 -4.01914551 57.11725098 -4.11352539 55.96020508 C-4.19981201 54.7564624 -4.28609863 53.55271973 -4.375 52.3125 C-5.51205746 39.36721445 -7.99631267 27.17672257 -11.32080078 14.63525391 C-12.31514984 10.77723675 -13.16170891 6.89464426 -14 3 C-9.37700624 -0.66651229 -5.7159679 -1.83616392 0 0 Z " fill="#4FBE69" transform="translate(395,182)"/>
<path d="M0 0 C2.99097304 2.54232708 3.84202557 4.1574697 4.5625 8 C3.81258191 11.99956315 2.21145104 13.72047316 -1 16 C-2.88692433 17.07824248 -4.78392154 18.13893941 -6.6875 19.1875 C-22.33935402 28.11769892 -31.13762124 43.00009244 -36 60 C-36.3196875 61.11761719 -36.639375 62.23523438 -36.96875 63.38671875 C-39.63784675 74.81687842 -39.1707631 86.2815188 -39.0390625 97.95703125 C-38.96112072 106.10794247 -39.19124888 114.23055038 -39.5 122.375 C-39.54785645 123.64110107 -39.59571289 124.90720215 -39.64501953 126.21166992 C-39.75907384 129.14131231 -39.87699257 132.07072195 -40 135 C-42.17144499 131.74283252 -43.33893359 128.46999624 -44.625 124.8125 C-46.17385719 120.42176203 -47.7410385 116.25151332 -50.171875 112.265625 C-60.10156624 95.82974663 -57.43052443 75.05647692 -53 57 C-48.77943189 40.06703006 -40.43562302 26.10153165 -28 14 C-27.32195312 13.32453125 -26.64390625 12.6490625 -25.9453125 11.953125 C-19.08840697 5.52299783 -9.82770354 -2.10593647 0 0 Z " fill="#4FBF69" transform="translate(225,24)"/>
<path d="M0 0 C0.68642578 1.01320312 0.68642578 1.01320312 1.38671875 2.046875 C1.91910156 2.69140625 2.45148438 3.3359375 3 4 C5.74372709 4.22023037 5.74372709 4.22023037 8.75 3.8125 C14.35468327 3.61596334 14.35468327 3.61596334 17.23828125 5.33203125 C21.81451417 9.82987046 24.69678952 14.35773728 25.4375 20.8125 C25.16708066 27.53435218 21.77109521 34.35445993 17 39 C6.77578029 46.05118601 -1.59471255 47.84126277 -14 47 C-21.1961227 45.64717441 -27.53918314 41.15292161 -32 35.4375 C-33.77272017 29.34377441 -34.32884415 22.64398595 -32.12109375 16.58984375 C-30.90569646 14.50802462 -29.61076785 12.79156833 -28 11 C-27.5153125 10.45859375 -27.030625 9.9171875 -26.53125 9.359375 C-19.56862978 2.60153773 -9.63442845 -1.37634692 0 0 Z " fill="#FEFDFD" transform="translate(127,214)"/>
<path d="M0 0 C5.32578398 4.03990078 9.37322829 8.79771437 10.33984375 15.55078125 C10.77351072 21.97794821 8.88853857 26.45612043 5.0546875 31.55859375 C-1.16887071 38.55492193 -9.79898888 42.90664844 -19.171875 43.76171875 C-27.58966342 43.92623579 -34.75665794 42.72145364 -41.3828125 37.24609375 C-46.41788326 32.34325718 -48.09639157 28.54099069 -48.3203125 21.49609375 C-48.35537153 16.95594992 -47.75188507 14.19100836 -44.9453125 10.55859375 C-42.6312503 9.82783727 -40.29702381 9.15721117 -37.9453125 8.55859375 C-35.77282896 5.80811994 -35.77282896 5.80811994 -35.6953125 3.05859375 C-34.9453125 0.55859375 -34.9453125 0.55859375 -32.1953125 -1.19140625 C-22.28399773 -5.00345039 -9.30513158 -5.52981725 0 0 Z " fill="#FEFDFE" transform="translate(298.9453125,186.44140625)"/>
<path d="M0 0 C1.91711763 3.39852671 1.92361638 5.59718535 1.375 9.4375 C-1.69100622 13.43008795 -4.94468215 14.42938249 -9.6875 15.8125 C-24.06304219 20.29833682 -36.01223689 28.02681611 -44.94921875 40.3125 C-47.21706209 43.18827337 -49.85534034 45.41467835 -52.6484375 47.765625 C-58.80873931 52.97631507 -63.37952119 58.57941884 -67.625 65.4375 C-68.9374423 61.50017311 -67.82840363 58.7287267 -66.75 54.875 C-65.48046645 50.19310303 -64.44326355 45.87671109 -64.3125 41 C-63.87757257 35.08894083 -60.4750229 31.68528355 -56.625 27.4375 C-55.74134766 26.34308594 -55.74134766 26.34308594 -54.83984375 25.2265625 C-44.91408374 13.21449624 -16.66727725 -9.92099836 0 0 Z " fill="#2CA030" transform="translate(489.625,198.5625)"/>
<path d="M0 0 C4.08312028 0.93571506 5.600536 2.27008158 8 5.6875 C8.24869548 10.1640186 7.15412018 12.87940857 4.4375 16.3125 C-1.75042143 22.91591736 -9.19863835 26.66896254 -18.25 27.0625 C-25.55072063 26.91330271 -31.28560022 24.69615583 -37.125 20.375 C-39.58302306 16.85183362 -39.68896755 14.89785726 -39 10.6875 C-37.4375 8.1875 -37.4375 8.1875 -35 6.6875 C-31.07073125 6.76026424 -28.48475029 7.43502589 -25 9.25 C-21.29161702 11.02693351 -19.07630543 11.18809891 -15 10.6875 C-10.73773823 8.77683093 -8.20267099 7.16562191 -5.4375 3.4375 C-3 0.6875 -3 0.6875 0 0 Z " fill="#4D5761" transform="translate(211,189.3125)"/>
<path d="M0 0 C3.80392704 3.4253809 4.24254045 8.51416453 5.1875 13.3125 C5.36474609 14.14201172 5.54199219 14.97152344 5.72460938 15.82617188 C6.70075586 20.60137497 7.38480456 25.10305171 7 30 C4.9375 33 4.9375 33 2 35 C-1.58939198 35.06188607 -3.89180149 35.04495145 -6.57421875 32.515625 C-8.69680719 28.77056485 -9.3610442 24.88409462 -10.1875 20.6875 C-10.36474609 19.85798828 -10.54199219 19.02847656 -10.72460938 18.17382812 C-13.21756739 5.97854701 -13.21756739 5.97854701 -10.5 1.5625 C-6.72171101 -0.79893062 -4.42209561 -0.56153595 0 0 Z " fill="#FF6F81" transform="translate(320,295)"/>
<path d="M0 0 C4.18528002 0.67263429 4.97716935 1.21923662 7.5 4.5625 C8.55614426 7.61196739 9.15765976 10.70695074 9.75 13.875 C9.92273438 14.70451172 10.09546875 15.53402344 10.2734375 16.38867188 C12.65912015 28.38335411 12.65912015 28.38335411 9.9375 33.5 C7.5 35.5625 7.5 35.5625 4 36.1875 C0.5 35.5625 0.5 35.5625 -1.578125 33.61328125 C-4.11747052 29.58232829 -4.87843171 25.76502957 -5.75 21.125 C-6.00910156 19.87493164 -6.00910156 19.87493164 -6.2734375 18.59960938 C-8.50293287 7.40789649 -8.50293287 7.40789649 -5.9375 2.6875 C-3.5 0.5625 -3.5 0.5625 0 0 Z " fill="#FF6F81" transform="translate(117.5,330.4375)"/>
<path d="M0 0 C4.78123744 3.33428401 5.24233137 7.92312477 6.25 13.3125 C6.42273438 14.14201172 6.59546875 14.97152344 6.7734375 15.82617188 C7.72155373 20.5930896 8.38394897 25.12013248 8 30 C5.52942103 33.41521211 4.08849737 34.77785768 -0.0625 35.625 C-3 35 -3 35 -5.04296875 33.046875 C-7.61859115 29.03692395 -8.37394832 25.26376544 -9.25 20.625 C-9.42273438 19.8 -9.59546875 18.975 -9.7734375 18.125 C-12.21832127 5.90058117 -12.21832127 5.90058117 -9.4375 1.5625 C-6.05782196 -0.60396028 -3.94016013 -0.56288002 0 0 Z " fill="#FF6F81" transform="translate(264,278)"/>
<path d="M0 0 C4.93812861 3.92926363 5.99084599 7.22853326 6.8125 13.1875 C6.98458984 14.3170813 6.98458984 14.3170813 7.16015625 15.46948242 C8.93069645 27.73284457 8.93069645 27.73284457 8 32 C5.875 34.6875 5.875 34.6875 3 36 C-0.75761342 36.07668599 -2.3481731 35.6223658 -5.07421875 33.01953125 C-7.64869148 28.98288334 -8.13293144 25.31472107 -8.75 20.625 C-8.87503906 19.8 -9.00007812 18.975 -9.12890625 18.125 C-9.81110774 13.40206664 -10.3365202 8.77858682 -10 4 C-6.99746894 0.65432253 -4.50513222 -1.01365475 0 0 Z " fill="#FF6F81" transform="translate(238,403)"/>
<path d="M0 0 C4.17350781 0.76656266 5.39853923 2.28840628 8.0625 5.5625 C9.05547197 8.24633293 9.48440481 10.92209086 9.875 13.75 C9.99117676 14.5023291 10.10735352 15.2546582 10.22705078 16.02978516 C12.37891641 30.76958931 12.37891641 30.76958931 9.7890625 34.296875 C7.7136972 35.8181835 6.61388928 35.96649306 4.0625 35.9375 C3.0415625 35.94910156 3.0415625 35.94910156 2 35.9609375 C-0.60638905 35.4249462 -1.37784581 34.72167445 -2.9375 32.5625 C-5.66402489 24.02171903 -7.77724151 13.52762771 -6.9375 4.5625 C-4.68799019 1.6294107 -3.65522741 0.69993716 0 0 Z " fill="#FF6F81" transform="translate(162.9375,296.4375)"/>
<path d="M0 0 C1.0209375 -0.01160156 1.0209375 -0.01160156 2.0625 -0.0234375 C4.69016513 0.51692912 5.44330227 1.17942633 7 3.375 C7.9140625 6.5546875 7.9140625 6.5546875 8.625 10.25 C8.86476563 11.46429688 9.10453125 12.67859375 9.3515625 13.9296875 C9.56554687 15.06664062 9.77953125 16.20359375 10 17.375 C10.18691406 18.25285156 10.37382812 19.13070312 10.56640625 20.03515625 C11.47535637 24.9402114 12.11753799 29.61272856 9.375 33.9375 C6.23101795 35.84043651 4.61853729 36.0396293 1 35.375 C-3.95723384 31.48432254 -4.9916257 28.13062991 -5.8125 22.1875 C-5.92867676 21.4351709 -6.04485352 20.6828418 -6.16455078 19.90771484 C-8.31641641 5.16791069 -8.31641641 5.16791069 -5.7265625 1.640625 C-3.6511972 0.1193165 -2.55138928 -0.02899306 0 0 Z " fill="#FF6F81" transform="translate(325,234.625)"/>
<path d="M0 0 C3.65692905 0.91423226 5.08377386 2.77085688 7.5 5.625 C10.23963879 13.6382097 12.16740486 24.26171735 10.5 32.625 C8.6953125 34.9609375 8.6953125 34.9609375 6.5 36.625 C3.08218114 36.56503827 0.6103256 36.49212715 -2.1418457 34.34277344 C-3.7698014 32.28375919 -4.16631132 30.77182392 -4.66796875 28.203125 C-4.83876953 27.34203125 -5.00957031 26.4809375 -5.18554688 25.59375 C-5.43401367 24.24796875 -5.43401367 24.24796875 -5.6875 22.875 C-5.95336914 21.55242187 -5.95336914 21.55242187 -6.22460938 20.203125 C-7.1686378 15.3043829 -7.9114553 10.63318252 -7.5 5.625 C-5.21408345 2.55534063 -3.74497671 0.93624418 0 0 Z " fill="#FF6F81" transform="translate(86.5,279.375)"/>
<path d="M0 0 C3.49713674 2.33801044 4.38543396 4.797391 5.30078125 8.73828125 C5.65431178 10.59332348 5.99104238 12.45163179 6.3125 14.3125 C6.58416992 15.69985352 6.58416992 15.69985352 6.86132812 17.11523438 C7.82511684 22.39169633 8.2613269 26.76064211 7 32 C4.74582958 34.5881216 3.39479021 34.94242643 0 35.4375 C-3 35 -3 35 -5.046875 33.62109375 C-8.00606755 29.64985734 -8.44505097 25.44149832 -9.25 20.625 C-9.42273438 19.69171875 -9.59546875 18.7584375 -9.7734375 17.796875 C-11.97207096 5.47754785 -11.97207096 5.47754785 -9.4375 1.625 C-6.06489221 -0.62340519 -3.97487617 -0.56783945 0 0 Z " fill="#FF6F81" transform="translate(209,257)"/>
<path d="M0 0 C4.18528002 0.67263429 4.97716935 1.21923662 7.5 4.5625 C8.55614426 7.61196739 9.15765976 10.70695074 9.75 13.875 C9.92273438 14.70451172 10.09546875 15.53402344 10.2734375 16.38867188 C12.65912015 28.38335411 12.65912015 28.38335411 9.9375 33.5 C7.5 35.5625 7.5 35.5625 4 36.1875 C0.5 35.5625 0.5 35.5625 -1.578125 33.61328125 C-4.11747052 29.58232829 -4.87843171 25.76502957 -5.75 21.125 C-6.00910156 19.87493164 -6.00910156 19.87493164 -6.2734375 18.59960938 C-8.50293287 7.40789649 -8.50293287 7.40789649 -5.9375 2.6875 C-3.5 0.5625 -3.5 0.5625 0 0 Z " fill="#FF6F80" transform="translate(177.5,375.4375)"/>
<path d="M0 0 C4.28358952 4.23815751 5.92199576 7.82546188 6.8125 13.8125 C6.92867676 14.51665039 7.04485352 15.22080078 7.16455078 15.94628906 C9.08418563 28.22177433 9.08418563 28.22177433 7 33.5625 C4.29586972 35.50609364 2.20294969 35.43977831 -1.0625 35.43359375 C-3.56589246 34.87335874 -4.3541095 33.94451431 -6 32 C-6.70776367 30.16577148 -6.70776367 30.16577148 -7.16796875 28.12109375 C-7.33941406 27.36908691 -7.51085937 26.61708008 -7.6875 25.84228516 C-7.8525 25.04870605 -8.0175 24.25512695 -8.1875 23.4375 C-8.44466797 22.22392822 -8.44466797 22.22392822 -8.70703125 20.98583984 C-11.61348374 6.60639681 -11.61348374 6.60639681 -8.375 1.375 C-5.1977677 -0.46445028 -3.61370211 -0.73749023 0 0 Z " fill="#FF6F80" transform="translate(278,355)"/>
<path d="M0 0 C4.7174091 3.41668659 5.22852563 7.78289586 6.25 13.1875 C6.42273438 14.00025391 6.59546875 14.81300781 6.7734375 15.65039062 C7.84290097 20.98497628 8.7977227 26.56670858 8 32 C5.57978103 34.83511365 4.07691649 35.78986995 0.4375 36.5 C-2.99709119 35.79546847 -3.85919449 34.81375027 -6 32 C-7.07721515 28.61749151 -7.66283202 25.18403719 -8.25 21.6875 C-8.42273438 20.76259766 -8.59546875 19.83769531 -8.7734375 18.88476562 C-9.67057031 13.8757741 -10.41945297 9.0866995 -10 4 C-6.98538624 0.64085896 -4.52721473 -0.92865943 0 0 Z " fill="#FF6F80" transform="translate(223,331)"/>
<path d="M0 0 C3.87571073 0.96892768 5.14719755 2.38194797 7.5 5.625 C8.57161452 9.25965132 9.09010591 12.86394474 9.5 16.625 C9.644375 17.73875 9.78875 18.8525 9.9375 20 C9.28778899 23.89826604 7.62771159 25.31321318 4.5 27.625 C1.4375 28.25 1.4375 28.25 -1.5 27.625 C-7.08623447 22.96980461 -7.15998778 15.58796365 -7.9375 8.8125 C-7.5 5.625 -7.5 5.625 -5.3125 2.6875 C-2.5 0.625 -2.5 0.625 0 0 Z " fill="#4E5762" transform="translate(254.5,169.375)"/>
<path d="M0 0 C3.5 0.5625 3.5 0.5625 5.8125 1.9375 C9.6263098 7.87009302 10.09455465 15.66566611 9.5 22.5625 C8.5 25.0625 8.5 25.0625 6.5 26.5625 C3.32714658 27.01576477 1.51145985 27.23779706 -1.5 26.5625 C-6.25603038 22.80773917 -6.74835382 17.26401129 -7.5 11.5625 C-7.9427167 7.65183577 -7.82051071 6.1522397 -5.9375 2.6875 C-3.5 0.5625 -3.5 0.5625 0 0 Z " fill="#4D5762" transform="translate(131.5,192.4375)"/>
<path d="M0 0 C0.66 0.33 1.32 0.66 2 1 C-3.61 6.61 -9.22 12.22 -15 18 C-15 12.50089132 -9.68936771 8.76735434 -6 5 C-4.05347234 3.22256464 -2.09090037 1.6083849 0 0 Z " fill="#FF7A8A" transform="translate(43,182)"/>
</svg>
