<?xml version="1.0" encoding="UTF-8"?>
<svg version="1.1" xmlns="http://www.w3.org/2000/svg" width="512" height="512">
<path d="M0 0 C12.66210052 11.20145852 23.58560524 23.61235301 33.49267578 37.27001953 C33.93538818 37.87869873 34.37810059 38.48737793 34.83422852 39.11450195 C37.93017578 43.46684719 37.93017578 43.46684719 37.93017578 45.70751953 C38.59017578 45.70751953 39.25017578 45.70751953 39.93017578 45.70751953 C40.18025391 44.99466797 40.43033203 44.28181641 40.68798828 43.54736328 C50.05869839 22.12438766 73.89786314 1.30066646 92.93017578 -11.29248047 C93.82639648 -11.89116943 93.82639648 -11.89116943 94.74072266 -12.50195312 C121.41001442 -30.07154355 153.92793069 -37.96867382 185.62255859 -31.90917969 C218.42890733 -24.59521016 244.56885493 -3.62315318 263.04736328 23.85595703 C276.84008836 45.59157438 286.04156865 69.71288287 291.18017578 94.89501953 C291.33115723 95.62873779 291.48213867 96.36245605 291.63769531 97.1184082 C294.54826882 112.28653225 295.30617271 127.2984789 295.24267578 142.70751953 C295.24052063 143.65183838 295.23836548 144.59615723 295.23614502 145.5690918 C295.18175884 160.45644261 294.6287866 175.03151276 291.93017578 189.70751953 C291.74213379 190.75085449 291.5540918 191.79418945 291.36035156 192.86914062 C283.32294107 235.92075943 266.03112196 277.62075586 236.93017578 310.70751953 C236.41567871 311.29500977 235.90118164 311.8825 235.37109375 312.48779297 C211.64972026 339.36348429 178.63249456 362.26930899 141.84912109 364.93041992 C109.27713689 366.12769117 83.60748615 357.68279634 57.93017578 337.70751953 C57.05876953 337.03591797 56.18736328 336.36431641 55.28955078 335.67236328 C53.11538428 333.86175773 51.32033581 332.04701251 49.49267578 329.89501953 C48.90228516 329.20794922 48.31189453 328.52087891 47.70361328 327.81298828 C46.53508539 326.42568314 45.37342761 325.03255771 44.21923828 323.63330078 C43.69072266 322.99779297 43.16220703 322.36228516 42.61767578 321.70751953 C42.14716797 321.13001953 41.67666016 320.55251953 41.19189453 319.95751953 C39.98938851 318.47291952 39.98938851 318.47291952 37.93017578 318.70751953 C36.325373 320.25527951 36.325373 320.25527951 34.68017578 322.27001953 C34.04724609 323.00736328 33.41431641 323.74470703 32.76220703 324.50439453 C31.69501341 325.78775744 30.64250389 327.08417101 29.62939453 328.41064453 C14.17830517 348.11915479 -13.83117992 361.23587064 -38.24755859 364.43066406 C-52.85110864 365.86322684 -67.91009742 365.80885009 -82.06982422 361.70751953 C-82.74851563 361.51947754 -83.42720703 361.33143555 -84.12646484 361.13769531 C-116.45280782 352.02688519 -143.46347915 330.75640424 -164.06982422 304.70751953 C-164.88708984 303.69560547 -165.70435547 302.68369141 -166.54638672 301.64111328 C-180.89293178 283.6752186 -192.38884618 262.33695738 -200.06982422 240.70751953 C-200.37484863 239.86979004 -200.67987305 239.03206055 -200.99414062 238.16894531 C-206.73113604 222.30060061 -211.00392708 206.30016477 -214.06982422 189.70751953 C-214.24916504 188.73927246 -214.42850586 187.77102539 -214.61328125 186.7734375 C-223.10405523 138.08007131 -217.5207713 83.22609918 -193.98242188 39.41503906 C-193.16032577 37.87685282 -192.36895614 36.32233931 -191.58154297 34.76611328 C-184.70099337 21.45079617 -175.40375567 10.42693479 -165.06982422 -0.29248047 C-164.49103516 -0.94603516 -163.91224609 -1.59958984 -163.31591797 -2.27294922 C-119.75391824 -50.15702725 -44.76162027 -37.95449837 0 0 Z M-128.06982422 7.70751953 C-128.92189453 8.19091797 -129.77396484 8.67431641 -130.65185547 9.17236328 C-147.35880991 19.5577674 -159.02630705 35.60304027 -168.06982422 52.70751953 C-168.57900391 53.61115234 -169.08818359 54.51478516 -169.61279297 55.44580078 C-178.08553062 71.1419448 -183.35220872 89.12152047 -186.06982422 106.70751953 C-186.24570068 107.83617432 -186.42157715 108.9648291 -186.6027832 110.12768555 C-188.14005865 121.02532112 -188.4297175 131.77477909 -188.38232422 142.77001953 C-188.38016907 143.67204102 -188.37801392 144.5740625 -188.37579346 145.50341797 C-188.32251896 159.42253506 -187.84906619 173.02605795 -185.06982422 186.70751953 C-184.87114746 187.68962402 -184.6724707 188.67172852 -184.46777344 189.68359375 C-173.6258406 241.47311111 -149.05930599 290.74768532 -104.06982422 320.70751953 C-94.60869743 326.63920727 -84.79675288 330.66205818 -74.06982422 333.70751953 C-73.25771484 333.95373047 -72.44560547 334.19994141 -71.60888672 334.45361328 C-52.16461362 339.39996346 -30.40235748 335.09558446 -13.06982422 325.70751953 C0.10063651 317.56306586 14.25980381 305.28933656 21.93017578 291.70751953 C21.96444288 289.54157051 21.96444288 289.54157051 20.99267578 287.58251953 C20.52667969 286.42236328 20.52667969 286.42236328 20.05126953 285.23876953 C19.68130859 284.40345703 19.31134766 283.56814453 18.93017578 282.70751953 C18.13592016 280.83361475 17.34441642 278.95854201 16.55517578 277.08251953 C16.12849609 276.07447266 15.70181641 275.06642578 15.26220703 274.02783203 C11.83546002 265.48608728 8.94662763 256.68989596 6.93017578 247.70751953 C6.60017578 247.70751953 6.27017578 247.70751953 5.93017578 247.70751953 C5.800625 249.19638672 5.800625 249.19638672 5.66845703 250.71533203 C4.00166666 267.6327301 -1.44519274 284.38055296 -14.62841797 295.95361328 C-28.75623178 306.70762081 -41.54846347 310.77239073 -59.06982422 311.70751953 C-58.38919922 310.90314453 -57.70857422 310.09876953 -57.00732422 309.27001953 C-54.71353271 305.77157493 -54.58393335 303.02491236 -55.27685547 298.94970703 C-57.29711941 293.23723657 -62.12891127 289.93589824 -67.38232422 287.33251953 C-74.82138931 284.41499146 -81.64843897 283.81763875 -89.15576172 286.76220703 C-91.79469309 288.06551599 -93.39814749 289.26965764 -95.06982422 291.70751953 C-95.87298076 294.85233744 -95.87298076 294.85233744 -96.06982422 297.70751953 C-107.93213135 288.5081793 -115.96350736 274.59755948 -118.06982422 259.70751953 C-119.59818175 241.11250284 -116.61706199 225.05859294 -104.96826172 209.98876953 C-93.16569662 196.14265075 -77.82011143 189.17538792 -59.85107422 187.38720703 C-43.21883415 186.76967337 -27.04320651 192.82589982 -14.38623047 203.51220703 C-7.57015574 209.97196082 -2.85640362 217.15130647 0.93017578 225.70751953 C1.91356739 222.75734471 1.96472765 221.66437824 1.59033203 218.69970703 C1.49655273 217.89098145 1.40277344 217.08225586 1.30615234 216.24902344 C1.15098145 214.929104 1.15098145 214.929104 0.99267578 213.58251953 C-3.31618214 172.49090275 2.93297951 130.64204071 17.00048828 91.93408203 C17.30760742 91.07693604 17.61472656 90.21979004 17.93115234 89.33666992 C18.62999198 87.49751938 19.39310263 85.68209925 20.20263672 83.88891602 C22.48493318 78.86639928 22.48493318 78.86639928 22.50097656 73.50537109 C21.48725732 71.33139602 20.31475354 69.47823899 18.93017578 67.52001953 C18.46683838 66.80515381 18.00350098 66.09028809 17.52612305 65.35375977 C16.04090817 63.10183886 14.49782288 60.90271157 12.93017578 58.70751953 C12.42728027 57.99273437 11.92438477 57.27794922 11.40625 56.54150391 C5.44054456 48.12976286 -0.92900936 40.15772845 -8.06982422 32.70751953 C-8.88580078 31.82837891 -9.70177734 30.94923828 -10.54248047 30.04345703 C-28.34002319 11.43336082 -53.00258475 -3.47893542 -79.29638672 -4.62841797 C-97.73649664 -4.93964345 -112.04291694 -1.38506992 -128.06982422 7.70751953 Z M104.93017578 15.70751953 C104.04458984 16.37138672 103.15900391 17.03525391 102.24658203 17.71923828 C58.64801263 51.9526578 35.72059027 106.6701749 29.17529297 160.59423828 C23.55321802 209.06503589 31.98565905 262.01398198 62.89501953 301.04736328 C77.75145964 319.22304612 98.1576155 333.04659937 121.93017578 335.70751953 C151.82477288 337.65532614 176.39533958 326.91942226 198.93017578 307.70751953 C199.71134766 307.04880859 200.49251953 306.39009766 201.29736328 305.71142578 C206.31437344 301.37855337 210.72433558 296.82339534 214.93017578 291.70751953 C215.3673291 291.18802734 215.80448242 290.66853516 216.25488281 290.13330078 C223.80588541 281.14581524 230.23631488 271.96624181 235.93017578 261.70751953 C236.30239258 261.05058105 236.67460937 260.39364258 237.05810547 259.71679688 C249.28912374 238.05444354 257.26739742 214.6171264 262.24267578 190.27001953 C262.38995117 189.55136719 262.53722656 188.83271484 262.68896484 188.09228516 C265.50705722 173.26925126 266.30622682 158.57482462 266.24267578 143.52001953 C266.24085297 142.6208783 266.23903015 141.72173706 266.2371521 140.79534912 C266.19100267 127.25688173 265.80159533 113.98888548 262.93017578 100.70751953 C262.75856934 99.90878418 262.58696289 99.11004883 262.41015625 98.28710938 C254.7288276 63.94422536 238.21040367 28.10963307 207.68017578 8.52001953 C173.93396688 -11.36331012 135.89784196 -7.59620624 104.93017578 15.70751953 Z M-58.50732422 206.58251953 C-60.43523783 209.20448205 -61.06982422 210.42676515 -61.06982422 213.70751953 C-59.10801836 220.33375891 -55.03308103 224.42414828 -49.06982422 227.70751953 C-41.98429746 230.64596177 -35.30170274 231.94430938 -27.88232422 229.45751953 C-24.52914045 228.04462462 -22.10140987 226.83954741 -20.06982422 223.70751953 C-19.3031709 219.52577413 -19.1657131 217.27599346 -21.29248047 213.58642578 C-26.84374904 206.64405918 -33.91597608 202.86263113 -42.69482422 201.70751953 C-48.94137193 201.3982845 -53.47689025 202.71295494 -58.50732422 206.58251953 Z " fill="#000000" transform="translate(217.06982421875,90.29248046875)"/>
<path d="M0 0 C13.27741435 10.33059856 21.85186346 24.49134731 24.625 41.2109375 C26.33013549 56.97760124 23.64873879 74.6729226 13.61230469 87.50732422 C5.39265147 97.35349118 5.39265147 97.35349118 0.91015625 98.84765625 C0.70390625 97.77515625 0.49765625 96.70265625 0.28515625 95.59765625 C-1.41175202 90.9697246 -2.66892476 89.93754523 -7.08984375 87.84765625 C-15.50708207 85.69588104 -22.87641998 87.42278231 -30.40234375 91.47265625 C-35.04177411 94.42830581 -37.69721128 97.47766543 -39.08984375 102.84765625 C-39.08984375 107.27138706 -36.95672487 109.61085499 -34.08984375 112.84765625 C-45.9692168 115.95249239 -59.66007119 110.80954295 -70.02734375 105.28125 C-84.61575562 96.54846456 -94.44785357 83.21263856 -99.08984375 66.84765625 C-102.81357064 50.27156515 -100.56095487 32.23471756 -91.9765625 17.57421875 C-81.14852938 1.92625371 -66.37371369 -8.09784009 -47.62109375 -11.64453125 C-30.57670702 -14.09560456 -14.10059356 -9.82228452 0 0 Z M-69.4609375 10.1796875 C-73.14363542 13.95069952 -75.05992111 17.08222064 -75.15234375 22.53515625 C-73.86171404 26.55888416 -72.68415782 27.69106781 -69.08984375 29.84765625 C-62.34136225 32.84698136 -56.44771524 32.49523102 -49.58984375 30.28515625 C-43.60850247 27.94752496 -38.20361674 24.45839634 -34.8984375 18.8125 C-33.72421782 15.95920291 -33.7154704 13.90503863 -34.08984375 10.84765625 C-36.6490731 6.06301008 -39.93802881 4.85703725 -44.87109375 3.328125 C-53.31294044 1.50004904 -62.99228892 4.71037085 -69.4609375 10.1796875 Z " fill="#000000" transform="translate(371.08984375,289.15234375)"/>
</svg>
