<?xml version="1.0" encoding="UTF-8"?>
<svg version="1.1" xmlns="http://www.w3.org/2000/svg" width="512" height="512">
<path d="M0 0 C16.0229736 6.66071286 27.08216068 18.1956575 33.9921875 34.0625 C37.3125 42.4664548 37.3125 42.4664548 37.3125 46.375 C38.0957666 46.36049805 38.8790332 46.34599609 39.68603516 46.33105469 C47.77305828 46.24705237 55.65430106 46.72148559 63.6875 47.625 C65.51269165 47.82851074 65.51269165 47.82851074 67.37475586 48.03613281 C101.23598224 51.95450891 150.38767497 57.95346978 174.3125 85.375 C179.27658387 91.91856511 180.12592048 98.4235719 179.88671875 106.5234375 C178.95596665 112.76644139 176.42104788 117.88878306 173.3125 123.375 C174.0653125 123.9834375 174.818125 124.591875 175.59375 125.21875 C206.27567461 150.38008543 229.29374246 182.07907695 234.3125 222.375 C238.50905225 299.27899056 200.62585319 378.48609915 153.3125 437.375 C152.84730957 437.95733398 152.38211914 438.53966797 151.90283203 439.13964844 C138.97182519 455.17760551 124.16650816 470.4628886 107.3125 482.375 C106.72194824 482.7992627 106.13139648 483.22352539 105.52294922 483.66064453 C96.26401961 490.26503631 86.6297916 495.61211238 76.3125 500.375 C75.28511719 500.85839844 74.25773438 501.34179688 73.19921875 501.83984375 C49.37779518 512.44505127 19.15726587 514.46370722 -5.6875 506.375 C-6.69393555 506.05354004 -6.69393555 506.05354004 -7.72070312 505.72558594 C-28.59249206 498.87796464 -47.12732261 487.72715374 -63.6875 473.375 C-64.44675781 472.72660156 -65.20601563 472.07820313 -65.98828125 471.41015625 C-78.14089448 460.76896046 -89.91689634 449.25073727 -99.6875 436.375 C-100.81373576 434.92703175 -101.94004464 433.47912036 -103.06640625 432.03125 C-128.53440189 398.98764705 -148.51157229 361.5907771 -162.6875 322.375 C-163.20304443 320.96782715 -163.20304443 320.96782715 -163.72900391 319.53222656 C-168.10292455 307.47572265 -171.62985676 295.29042903 -174.5625 282.8125 C-174.99199951 280.99480103 -174.99199951 280.99480103 -175.43017578 279.14038086 C-178.51750711 265.52214937 -180.08280328 252.1526229 -180.0625 238.1875 C-180.06162384 237.51690552 -180.06074768 236.84631104 -180.05984497 236.15539551 C-179.90429352 199.8112564 -164.73646455 168.15920743 -139.6875 142.375 C-139.18927734 141.85631348 -138.69105469 141.33762695 -138.17773438 140.80322266 C-132.07326959 134.46411993 -125.86111215 128.51971174 -118.6875 123.375 C-119.3371875 122.22837891 -119.3371875 122.22837891 -120 121.05859375 C-124.86772312 111.69498746 -126.97731731 102.89725073 -123.796875 92.44921875 C-116.37802624 76.15248098 -97.87604034 69.34809477 -82.16845703 63.29345703 C-62.19418625 55.89892774 -41.28052606 52.02259807 -20.25 49.0625 C-19.03578369 48.89089355 -17.82156738 48.71928711 -16.57055664 48.54248047 C-10.21347721 47.69298013 -4.10022393 47.18981974 2.3125 47.375 C-3.18374722 37.47797751 -6.97070871 33.83829247 -17.80078125 30.44140625 C-22.20950049 28.81274542 -25.2655179 26.63634653 -27.8125 22.5859375 C-29.60343788 18.06062125 -29.19893524 13.1441336 -28.6875 8.375 C-23.16489758 -3.51983597 -11.22448815 -3.7946423 0 0 Z " fill="#F69CAE" transform="translate(228.6875,1.625)"/>
<path d="M0 0 C16.0229736 6.66071286 27.08216068 18.1956575 33.9921875 34.0625 C37.3125 42.4664548 37.3125 42.4664548 37.3125 46.375 C38.0957666 46.36049805 38.8790332 46.34599609 39.68603516 46.33105469 C47.77305828 46.24705237 55.65430106 46.72148559 63.6875 47.625 C65.51269165 47.82851074 65.51269165 47.82851074 67.37475586 48.03613281 C101.23598224 51.95450891 150.38767497 57.95346978 174.3125 85.375 C179.29149283 91.93821782 180.17156639 98.4951535 179.84375 106.625 C178.6035407 115.3794186 174.81656919 121.49393413 168.1875 127.25 C161.37029062 132.37222016 153.83483105 137.01142703 145.3125 138.375 C145.47258545 138.9529834 145.6326709 139.5309668 145.79760742 140.12646484 C147.99110775 149.70547766 147.5621763 161.94417657 142.3125 170.375 C137.4049326 177.94823772 130.04713798 182.40754841 121.41796875 184.9284668 C103.79813511 188.66532623 87.31715001 183.45265728 72.3125 174.375 C72.09464844 175.05949219 71.87679687 175.74398437 71.65234375 176.44921875 C65.94318389 188.91615966 53.28799394 198.98622917 41.0625 204.375 C30.5513905 208.04079619 20.21415018 207.80203237 10.15234375 202.98046875 C-1.4311579 196.43188666 -10.47579481 187.54151127 -17.6875 176.375 C-17.6875 175.715 -17.6875 175.055 -17.6875 174.375 C-18.55890625 174.83390625 -19.4303125 175.2928125 -20.328125 175.765625 C-35.65356261 183.72877878 -51.20855653 189.03183309 -68.6484375 184.4921875 C-78.49007747 181.02811376 -84.95053915 175.70011512 -89.77734375 166.48828125 C-91.77883344 161.84104553 -91.84010867 157.51557523 -91.8125 152.5 C-91.81830078 151.45779297 -91.81830078 151.45779297 -91.82421875 150.39453125 C-91.81647598 146.28312094 -91.48390249 142.4075777 -90.6875 138.375 C-91.925 138.024375 -93.1625 137.67375 -94.4375 137.3125 C-105.54745561 133.59749907 -116.20741312 127.20746516 -122.125 116.9375 C-125.76919485 109.05154072 -126.33329985 100.78881528 -123.796875 92.4453125 C-116.36840819 76.15220863 -97.87892226 69.34920563 -82.16845703 63.29345703 C-62.19418625 55.89892774 -41.28052606 52.02259807 -20.25 49.0625 C-19.03578369 48.89089355 -17.82156738 48.71928711 -16.57055664 48.54248047 C-10.21347721 47.69298013 -4.10022393 47.18981974 2.3125 47.375 C-3.18374722 37.47797751 -6.97070871 33.83829247 -17.80078125 30.44140625 C-22.20950049 28.81274542 -25.2655179 26.63634653 -27.8125 22.5859375 C-29.60343788 18.06062125 -29.19893524 13.1441336 -28.6875 8.375 C-23.16489758 -3.51983597 -11.22448815 -3.7946423 0 0 Z " fill="#ACEAE1" transform="translate(228.6875,1.625)"/>
<path d="M0 0 C23.93868091 10.58913295 43.50480413 41.98330149 53.31640625 65.2265625 C73.34798355 117.73273029 56.77077569 174.91474635 35.08984375 224.28125 C20.65022783 256.35542675 3.13190639 286.45008115 -18.93359375 313.9140625 C-19.39878418 314.49639648 -19.86397461 315.07873047 -20.34326172 315.67871094 C-33.27426856 331.71666801 -48.07958559 347.0019511 -64.93359375 358.9140625 C-65.81942139 359.55045654 -65.81942139 359.55045654 -66.72314453 360.19970703 C-75.98207414 366.80409881 -85.61630215 372.15117488 -95.93359375 376.9140625 C-96.96097656 377.39746094 -97.98835938 377.88085938 -99.046875 378.37890625 C-113.08332939 384.62788256 -127.69735901 387.10118203 -142.98388672 387.09936523 C-145.0597753 387.10156375 -147.13514182 387.11979209 -149.2109375 387.13867188 C-151.18126953 387.14157227 -151.18126953 387.14157227 -153.19140625 387.14453125 C-154.38910645 387.14864014 -155.58680664 387.15274902 -156.82080078 387.15698242 C-159.78418838 386.92572198 -161.44289192 386.46911405 -163.93359375 384.9140625 C-162.68449219 384.60855469 -161.43539062 384.30304688 -160.1484375 383.98828125 C-135.15310011 377.54883742 -113.38951361 365.77585971 -93.93359375 348.9140625 C-93.17433594 348.26566406 -92.41507812 347.61726563 -91.6328125 346.94921875 C-79.4758826 336.30424316 -67.70341783 324.80529247 -57.93359375 311.9140625 C-56.9830855 310.68097988 -56.03256369 309.44790772 -55.08203125 308.21484375 C-11.45226103 251.19375791 29.70973866 170.76579497 21.18237305 96.92089844 C17.27313286 68.23474063 3.2761567 40.53867913 -17.49609375 20.3515625 C-18.70265625 19.145 -18.70265625 19.145 -19.93359375 17.9140625 C-19.93359375 17.2540625 -19.93359375 16.5940625 -19.93359375 15.9140625 C-20.92359375 15.5840625 -21.91359375 15.2540625 -22.93359375 14.9140625 C-20.62498427 12.31407513 -18.40582795 11.072798 -15.24609375 9.6640625 C-10.62455717 7.46461589 -7.29819207 4.808271 -3.72265625 1.171875 C-1.93359375 -0.0859375 -1.93359375 -0.0859375 0 0 Z " fill="#E3889B" transform="translate(400.93359375,125.0859375)"/>
<path d="M0 0 C16.0229736 6.66071286 27.08216068 18.1956575 33.9921875 34.0625 C37.3125 42.4664548 37.3125 42.4664548 37.3125 46.375 C38.0957666 46.36049805 38.8790332 46.34599609 39.68603516 46.33105469 C47.77305828 46.24705237 55.65430106 46.72148559 63.6875 47.625 C65.51269165 47.82851074 65.51269165 47.82851074 67.37475586 48.03613281 C101.23598224 51.95450891 150.38767497 57.95346978 174.3125 85.375 C179.29149283 91.93821782 180.17156639 98.4951535 179.84375 106.625 C178.6035407 115.3794186 174.81656919 121.49393413 168.1875 127.25 C161.37029062 132.37222016 153.83483105 137.01142703 145.3125 138.375 C145.47258545 138.9529834 145.6326709 139.5309668 145.79760742 140.12646484 C147.99110775 149.70547766 147.5621763 161.94417657 142.3125 170.375 C137.396157 177.96178 130.05692337 182.36255109 121.43554688 184.93505859 C117.34382203 185.78295282 113.16322579 185.55963474 109 185.5625 C108.07509766 185.57474609 107.15019531 185.58699219 106.19726562 185.59960938 C100.83080624 185.61105172 96.38599801 185.14547586 91.3125 183.375 C91.3125 183.045 91.3125 182.715 91.3125 182.375 C92.281875 182.189375 93.25125 182.00375 94.25 181.8125 C100.38563756 180.00790072 105.51889253 176.18016808 108.9609375 170.796875 C111.59099818 165.5975643 113.44411505 161.14440286 113.41015625 155.26953125 C113.40693359 154.28662109 113.40371094 153.30371094 113.40039062 152.29101562 C113.39201172 151.26685547 113.38363281 150.24269531 113.375 149.1875 C113.36823242 147.63385742 113.36823242 147.63385742 113.36132812 146.04882812 C113.3495401 143.49082734 113.33308515 140.93294267 113.3125 138.375 C114.3746875 137.86710938 115.436875 137.35921875 116.53125 136.8359375 C133.50720314 128.77353851 133.50720314 128.77353851 144.34765625 113.921875 C146.8479347 106.33963522 147.384553 99.31618113 144.515625 91.7265625 C135.8016015 74.69460747 114.24767882 68.01401565 97.3125 62.375 C77.9416436 56.19908294 58.34807686 52.60726154 38.3125 49.375 C38.50585938 50.15101562 38.69921875 50.92703125 38.8984375 51.7265625 C41.82111025 63.8513138 43.49082051 75.4208902 43.625 87.875 C43.64264404 88.81915771 43.66028809 89.76331543 43.6784668 90.73608398 C43.67249092 96.81681026 43.08280133 101.3377686 38.8125 106.01953125 C33.84033782 109.89108462 30.6002483 110.79418322 24.3125 110.375 C18.45213267 108.55626531 15.71819618 106.2832092 12.3125 101.375 C11.27740841 98.22426793 11.08443694 95.12315521 10.8828125 91.82421875 C9.81736062 68.84408795 9.81736062 68.84408795 2.3125 47.375 C1.84585938 46.50875 1.37921875 45.6425 0.8984375 44.75 C-4.06125289 36.00059746 -8.30981394 33.41827792 -17.80078125 30.44140625 C-22.20950049 28.81274542 -25.2655179 26.63634653 -27.8125 22.5859375 C-29.60343788 18.06062125 -29.19893524 13.1441336 -28.6875 8.375 C-23.16489758 -3.51983597 -11.22448815 -3.7946423 0 0 Z " fill="#98D7CE" transform="translate(228.6875,1.625)"/>
<path d="M0 0 C3.55478892 2.8989788 5.51916389 5.3143817 6.86328125 9.76953125 C7.50511765 17.28818627 8.10951491 25.25863964 3.86328125 31.76953125 C0.20403613 35.5687475 -3.04000241 37.60824538 -8.38671875 38.01953125 C-13.18588896 37.69958657 -17.06652345 36.72234434 -20.65234375 33.33984375 C-26.43647008 26.65818057 -25.61496605 19.11228969 -25.13671875 10.76953125 C-24.02489445 5.05965394 -20.7618549 1.9788094 -16.13671875 -1.23046875 C-10.91681733 -2.98841076 -4.80606975 -2.76766357 0 0 Z " fill="#E3889B" transform="translate(265.13671875,386.23046875)"/>
<path d="M0 0 C3.55478892 2.8989788 5.51916389 5.3143817 6.86328125 9.76953125 C7.50511765 17.28818627 8.10951491 25.25863964 3.86328125 31.76953125 C0.20403613 35.5687475 -3.04000241 37.60824538 -8.38671875 38.01953125 C-13.18588896 37.69958657 -17.06652345 36.72234434 -20.65234375 33.33984375 C-26.43647008 26.65818057 -25.61496605 19.11228969 -25.13671875 10.76953125 C-24.02489445 5.05965394 -20.7618549 1.9788094 -16.13671875 -1.23046875 C-10.91681733 -2.98841076 -4.80606975 -2.76766357 0 0 Z " fill="#E3889B" transform="translate(321.13671875,322.23046875)"/>
<path d="M0 0 C3.55478892 2.8989788 5.51916389 5.3143817 6.86328125 9.76953125 C7.50511765 17.28818627 8.10951491 25.25863964 3.86328125 31.76953125 C0.20403613 35.5687475 -3.04000241 37.60824538 -8.38671875 38.01953125 C-13.18588896 37.69958657 -17.06652345 36.72234434 -20.65234375 33.33984375 C-26.43647008 26.65818057 -25.61496605 19.11228969 -25.13671875 10.76953125 C-24.02489445 5.05965394 -20.7618549 1.9788094 -16.13671875 -1.23046875 C-10.91681733 -2.98841076 -4.80606975 -2.76766357 0 0 Z " fill="#E3889B" transform="translate(209.13671875,322.23046875)"/>
<path d="M0 0 C3.55478892 2.8989788 5.51916389 5.3143817 6.86328125 9.76953125 C7.50511765 17.28818627 8.10951491 25.25863964 3.86328125 31.76953125 C0.20403613 35.5687475 -3.04000241 37.60824538 -8.38671875 38.01953125 C-13.18588896 37.69958657 -17.06652345 36.72234434 -20.65234375 33.33984375 C-26.43647008 26.65818057 -25.61496605 19.11228969 -25.13671875 10.76953125 C-24.02489445 5.05965394 -20.7618549 1.9788094 -16.13671875 -1.23046875 C-10.91681733 -2.98841076 -4.80606975 -2.76766357 0 0 Z " fill="#E3889B" transform="translate(377.13671875,242.23046875)"/>
<path d="M0 0 C3.55478892 2.8989788 5.51916389 5.3143817 6.86328125 9.76953125 C7.50511765 17.28818627 8.10951491 25.25863964 3.86328125 31.76953125 C0.20403613 35.5687475 -3.04000241 37.60824538 -8.38671875 38.01953125 C-13.18588896 37.69958657 -17.06652345 36.72234434 -20.65234375 33.33984375 C-26.43647008 26.65818057 -25.61496605 19.11228969 -25.13671875 10.76953125 C-24.02489445 5.05965394 -20.7618549 1.9788094 -16.13671875 -1.23046875 C-10.91681733 -2.98841076 -4.80606975 -2.76766357 0 0 Z " fill="#E3889B" transform="translate(265.13671875,242.23046875)"/>
<path d="M0 0 C3.55478892 2.8989788 5.51916389 5.3143817 6.86328125 9.76953125 C7.50511765 17.28818627 8.10951491 25.25863964 3.86328125 31.76953125 C0.20403613 35.5687475 -3.04000241 37.60824538 -8.38671875 38.01953125 C-13.18588896 37.69958657 -17.06652345 36.72234434 -20.65234375 33.33984375 C-26.43647008 26.65818057 -25.61496605 19.11228969 -25.13671875 10.76953125 C-24.02489445 5.05965394 -20.7618549 1.9788094 -16.13671875 -1.23046875 C-10.91681733 -2.98841076 -4.80606975 -2.76766357 0 0 Z " fill="#E3889B" transform="translate(153.13671875,242.23046875)"/>
</svg>
