<?xml version="1.0" encoding="UTF-8"?>
<svg version="1.1" xmlns="http://www.w3.org/2000/svg" width="512" height="512">
<path d="M0 0 C3.87062746 1.93531373 7.0831623 4.05983361 9 8 C10.47772771 15.51178254 7.56075352 19.9099032 3.63720703 26.06762695 C-6.68225301 42.38757208 -9.63042165 59.92390797 -9 79 C-8.24976563 78.14277344 -7.49953125 77.28554687 -6.7265625 76.40234375 C4.6124907 63.64567574 18.46171284 52.60796534 36.11621094 50.78100586 C38.26899193 50.66323723 40.40666901 50.62890196 42.5625 50.625 C43.27857422 50.60050781 43.99464844 50.57601562 44.73242188 50.55078125 C50.26245813 50.52058997 53.45232897 51.8411046 58 55 C62.52770218 60.83835281 63.8390809 65.75554098 63 73 C61.15926461 78.52220616 57.5774639 83.28793139 54.26953125 88.01953125 C52.83955537 90.07175611 52.83955537 90.07175611 52 93 C52.804375 93.37125 52.804375 93.37125 53.625 93.75 C56 95 56 95 58.44921875 96.875 C62.91728064 99.87273252 68.04331755 100.89113636 73.1875 102.25 C107.88562428 111.91746647 142.12469228 130.53637332 160.73046875 162.5859375 C168.77802533 177.05216886 173.48429382 191.67429835 176 208 C176.13277344 208.845625 176.26554687 209.69125 176.40234375 210.5625 C181.67974851 252.20339232 168.05993626 297.96135053 148.171875 334.22265625 C147.70571777 335.07633789 147.23956055 335.93001953 146.75927734 336.80957031 C145.86160356 338.43266583 144.94620421 340.04613201 144.01025391 341.64746094 C141.28333272 346.53288073 140.53144153 349.36595093 142 355 C144.37166402 364.1112848 143.68226199 372.81158921 139 381 C135.25055231 386.84428082 131.14577511 392.43326737 127 398 C126.55285645 398.60312012 126.10571289 399.20624023 125.64501953 399.82763672 C117.39375424 410.90463421 108.45688782 421.4049307 99.1640625 431.6171875 C97.73073335 433.1954019 96.3086322 434.78389285 94.8984375 436.3828125 C86.22195736 446.19512276 77.02724112 455.56379714 67 464 C65.64261719 465.19109375 65.64261719 465.19109375 64.2578125 466.40625 C50.88327776 478.07421635 36.46704963 488.30126195 21 497 C20.32614258 497.38671875 19.65228516 497.7734375 18.95800781 498.171875 C-2.69445998 510.5389776 -26.28526056 516.06471313 -51.1875 510.6875 C-97.44688583 496.77563423 -141.08691906 457.04663947 -170.67578125 419.91015625 C-172.41988304 417.72636493 -174.18493194 415.57431728 -175.98046875 413.43359375 C-184.34655553 403.40568928 -191.88082252 392.94696304 -199 382 C-199.38978027 381.4013916 -199.77956055 380.8027832 -200.18115234 380.18603516 C-206.33001691 370.60364919 -211.6872339 359.38146429 -210.7109375 347.734375 C-209.55426418 332.55438536 -214.31060546 321.70730842 -220.61083984 308.11572266 C-237.52250329 270.1848529 -244.05601746 221.73887106 -229.79052734 182.0234375 C-224.07522122 167.39451311 -215.86729105 154.32268229 -205 143 C-204.195625 142.154375 -203.39125 141.30875 -202.5625 140.4375 C-201.2940625 139.2309375 -201.2940625 139.2309375 -200 138 C-199.35289062 137.35804688 -198.70578125 136.71609375 -198.0390625 136.0546875 C-179.46027559 118.34003022 -153.89281623 107.68337411 -129.3125 101.5 C-122.50186057 99.77761821 -117.59786489 97.57852839 -113 92 C-114.42010013 88.08223634 -116.2854438 84.79701397 -118.5625 81.3125 C-122.7832307 74.82784306 -123.77610585 70.80417548 -123 63 C-121.36124874 58.11937124 -118.24968807 54.83312538 -114 52 C-102.34569977 48.11523326 -88.90866725 51.44542141 -78.140625 56.28515625 C-69.84503746 60.49153468 -62.45481068 66.3116271 -56 73 C-55.76925781 71.92363281 -55.53851563 70.84726563 -55.30078125 69.73828125 C-51.06149883 50.51105564 -44.09506694 32.92528299 -31 18 C-30.07960937 16.86498047 -30.07960937 16.86498047 -29.140625 15.70703125 C-21.61791686 6.67667292 -12.65438575 -2.96907109 0 0 Z " fill="#FE6D7A" transform="translate(286,0)"/>
<path d="M0 0 C6.25537846 4.18564069 12.0620164 8.83694338 17.86328125 13.625 C37.28905474 29.73790132 37.28905474 29.73790132 61.34375 34.5625 C73.25257873 33.33715428 82.16071442 28.7431628 91.98828125 22.1875 C94.26766849 20.72991061 96.56381218 19.30062415 98.86328125 17.875 C99.87132812 17.23949219 100.879375 16.60398437 101.91796875 15.94921875 C109.73126396 11.46601755 116.05203652 10.04264302 124.98828125 11.1875 C141.30110375 16.75019454 148.15247333 32.00224835 155.36206055 46.43774414 C159.0126063 53.63287911 162.85571196 60.60944834 170.11328125 64.625 C171.35464844 65.33462891 171.35464844 65.33462891 172.62109375 66.05859375 C179.70565718 69.43720568 187.29916023 68.94727459 194.67578125 66.6875 C205.60286282 62.70512372 215.52179179 56.52943337 225.40649414 50.49145508 C237.49677216 43.17478808 249.18788021 36.45165283 263.78515625 39.8359375 C270.69883875 42.34805195 277.08025662 46.45095177 280.48828125 53.125 C280.65328125 53.805625 280.81828125 54.48625 280.98828125 55.1875 C281.64828125 55.1875 282.30828125 55.1875 282.98828125 55.1875 C286.50778753 63.48347908 287.65028627 72.18333019 284.73828125 80.875 C281.06794802 88.97055768 275.27127869 96.093764 269.98828125 103.1875 C269.5411377 103.79062012 269.09399414 104.39374023 268.63330078 105.01513672 C260.38203549 116.09213421 251.44516907 126.5924307 242.15234375 136.8046875 C240.7190146 138.3829019 239.29691345 139.97139285 237.88671875 141.5703125 C229.21023861 151.38262276 220.01552237 160.75129714 209.98828125 169.1875 C208.63089844 170.37859375 208.63089844 170.37859375 207.24609375 171.59375 C193.87155901 183.26171635 179.45533088 193.48876195 163.98828125 202.1875 C163.31442383 202.57421875 162.64056641 202.9609375 161.94628906 203.359375 C140.29382127 215.7264776 116.70302069 221.25221313 91.80078125 215.875 C45.54139542 201.96313423 1.90136219 162.23413947 -27.6875 125.09765625 C-29.43160179 122.91386493 -31.19665069 120.76181728 -32.9921875 118.62109375 C-41.35827428 108.59318928 -48.89254127 98.13446304 -56.01171875 87.1875 C-56.40149902 86.5888916 -56.7912793 85.9902832 -57.19287109 85.37353516 C-66.71749594 70.53036689 -70.43453847 53.78297981 -67.328125 36.3515625 C-63.26236175 21.06699196 -55.0402802 8.389304 -41.66796875 -0.33984375 C-27.9104137 -7.96719413 -13.48718761 -8.11680292 0 0 Z " fill="#FEBECA" transform="translate(143.01171875,294.8125)"/>
<path d="M0 0 C3.87062746 1.93531373 7.0831623 4.05983361 9 8 C10.47772771 15.51178254 7.56075352 19.9099032 3.63720703 26.06762695 C-6.68225301 42.38757208 -9.63042165 59.92390797 -9 79 C-8.24976563 78.14277344 -7.49953125 77.28554687 -6.7265625 76.40234375 C4.6124907 63.64567574 18.46171284 52.60796534 36.11621094 50.78100586 C38.26899193 50.66323723 40.40666901 50.62890196 42.5625 50.625 C43.63661133 50.58826172 43.63661133 50.58826172 44.73242188 50.55078125 C50.26245813 50.52058997 53.45232897 51.8411046 58 55 C62.52770218 60.83835281 63.8390809 65.75554098 63 73 C61.15926461 78.52220616 57.5774639 83.28793139 54.26953125 88.01953125 C52.83955537 90.07175611 52.83955537 90.07175611 52 93 C52.556875 93.226875 53.11375 93.45375 53.6875 93.6875 C56.6500653 95.36895598 58.61063006 97.56931531 61 100 C61.91136719 100.86496094 62.82273437 101.72992188 63.76171875 102.62109375 C71.24104361 109.76871023 77.35375446 117.34073554 83 126 C83.63679687 126.96421875 84.27359375 127.9284375 84.9296875 128.921875 C93.29948154 142.38794363 101.95322032 161.81617452 100 178 C98.18330096 183.29382194 95.79025432 186.92932415 91 190 C76.00385139 194.9987162 57.30058271 188.36331881 43.71875 181.9140625 C31.24896366 175.672768 19.78750361 166.81538906 11 156 C10.34 155.67 9.68 155.34 9 155 C9.07927734 156.46566406 9.07927734 156.46566406 9.16015625 157.9609375 C9.15219782 162.48814637 7.90766545 166.37719526 6.4375 170.625 C6.1686499 171.41189209 5.8997998 172.19878418 5.62280273 173.00952148 C1.79981116 183.81477477 -3.57221307 193.24582255 -11 202 C-11.5775 202.721875 -12.155 203.44375 -12.75 204.1875 C-16.90791942 209.23640215 -20.65633353 213.25231971 -27.3828125 214.41015625 C-33.9101184 214.79939926 -38.09872449 213.2502522 -43 209 C-55.87269959 196.92268672 -62.786061 182.61011995 -68 166 C-68.33 165.01 -68.66 164.02 -69 163 C-69.12781786 160.32605036 -69.04391871 157.67904143 -69 155 C-71.59541535 156.94656151 -73.79819546 158.73813985 -75.78515625 161.31640625 C-87.39433774 175.38255737 -107.56880779 185.48565667 -125.125 189.125 C-125.91003906 189.29386719 -126.69507813 189.46273437 -127.50390625 189.63671875 C-129.66751554 190.1000887 -131.83311084 190.5522602 -134 191 C-134.93972656 191.19722656 -135.87945312 191.39445313 -136.84765625 191.59765625 C-142.70201196 192.69202764 -146.97436643 192.08796582 -152.13671875 189.28125 C-155.62682609 186.88134391 -158.1010322 183.7979356 -160 180 C-162.52599049 157.77128365 -150.3530807 133.99290618 -137 117 C-130.57045061 109.0894751 -124.00306147 101.27709105 -116.1875 94.6875 C-115.58292969 94.17574219 -114.97835937 93.66398437 -114.35546875 93.13671875 C-113.90816406 92.76160156 -113.46085937 92.38648437 -113 92 C-114.42010013 88.08223634 -116.2854438 84.79701397 -118.5625 81.3125 C-122.7832307 74.82784306 -123.77610585 70.80417548 -123 63 C-121.36124874 58.11937124 -118.24968807 54.83312538 -114 52 C-102.34569977 48.11523326 -88.90866725 51.44542141 -78.140625 56.28515625 C-69.84503746 60.49153468 -62.45481068 66.3116271 -56 73 C-55.76925781 71.92363281 -55.53851563 70.84726563 -55.30078125 69.73828125 C-51.06149883 50.51105564 -44.09506694 32.92528299 -31 18 C-30.07960937 16.86498047 -30.07960937 16.86498047 -29.140625 15.70703125 C-21.61791686 6.67667292 -12.65438575 -2.96907109 0 0 Z " fill="#BEF991" transform="translate(286,0)"/>
<path d="M0 0 C-0.71671875 0.70253906 -1.4334375 1.40507813 -2.171875 2.12890625 C-17.61430071 17.59848109 -29.63003786 36.27565006 -35.4375 57.4375 C-37.21888475 63.77941194 -39.81644118 67.57798397 -44.46875 72.20703125 C-67.70021967 97.84052016 -71.44269016 133.06602193 -70.11517334 166.02557373 C-69.55277958 175.66673739 -68.68717017 187.38232738 -64 196 C-64.49628906 196.3403125 -64.99257812 196.680625 -65.50390625 197.03125 C-77.85312658 205.84207893 -83.21610075 217.32421412 -89 231 C-113.4845117 194.27323244 -121.23252491 139.67786291 -113 97 C-108.64643082 76.56944232 -98.42544222 58.02993695 -84 43 C-82.7934375 41.7315625 -82.7934375 41.7315625 -81.5625 40.4375 C-80.716875 39.633125 -79.87125 38.82875 -79 38 C-78.35289063 37.35804688 -77.70578125 36.71609375 -77.0390625 36.0546875 C-60.64372241 20.42192137 -39.17306884 11.19236042 -18 4 C-17.33178223 3.7726416 -16.66356445 3.5452832 -15.97509766 3.31103516 C-5.37948283 -0.24452195 -5.37948283 -0.24452195 0 0 Z " fill="#FE8B94" transform="translate(165,100)"/>
<path d="M0 0 C2.8125 2.6875 2.8125 2.6875 3.75 6.0625 C2.15611222 12.22553276 -2.81377881 14.92447584 -7.73828125 18.58203125 C-16.51089893 26.12340434 -22.00486576 39.38151665 -23.1875 50.6875 C-25.78388469 87.39726712 -0.89057459 114.48380163 21.8125 140.6875 C24.7735824 144.05754308 27.78116761 147.38059194 30.8125 150.6875 C31.56732666 151.51797852 31.56732666 151.51797852 32.33740234 152.36523438 C40.63814172 161.55582018 40.63814172 161.55582018 49.7421875 169.9296875 C51.88408309 171.74827809 53.93077713 173.65361168 55.97900391 175.57641602 C60.6454357 179.94398645 65.41646275 184.06113518 70.5 187.9375 C71.04060059 188.3514502 71.58120117 188.76540039 72.13818359 189.19189453 C74.59955179 191.06133552 77.08341246 192.87323638 79.6328125 194.62109375 C85.64552171 198.85260854 85.64552171 198.85260854 86.5625 203.4375 C85.8125 206.6875 85.8125 206.6875 84.75 208.625 C81.78036171 210.25351132 79.07538726 210.20849056 75.8125 209.6875 C72.31592494 208.35672784 69.08778318 206.61241427 65.8125 204.8125 C64.88405273 204.31218262 63.95560547 203.81186523 62.99902344 203.29638672 C28.11886719 184.2177244 -4.14929326 155.61576687 -28.86328125 124.59765625 C-30.60738304 122.41386493 -32.37243194 120.26181728 -34.16796875 118.12109375 C-42.53405553 108.09318928 -50.06832252 97.63446304 -57.1875 86.6875 C-57.57728027 86.0888916 -57.96706055 85.4902832 -58.36865234 84.87353516 C-67.89327719 70.03036689 -71.61031972 53.28297981 -68.50390625 35.8515625 C-64.438143 20.56699196 -56.21606145 7.889304 -42.84375 -0.83984375 C-28.64189953 -8.71351673 -13.85243039 -8.38363523 0 0 Z " fill="#FFD8DF" transform="translate(144.1875,295.3125)"/>
<path d="M0 0 C3.45385602 2.15066498 6.04726186 5.06947021 7.31689453 8.99853516 C8.06459441 13.13896018 7.6401922 17.48009823 7.47265625 21.67578125 C7.35207985 27.87998505 9.16176666 31.59870981 12.4375 36.86328125 C14.14870322 41.22684947 13.84588721 44.55591256 12.6875 49.05078125 C10.57561082 53.36638088 7.46082544 56.29497917 4.0625 59.61328125 C-11.87193719 75.31373258 -25.52460321 97.35700425 -29.27929688 119.62133789 C-30.46474116 126.45187455 -31.57781096 132.6346975 -37.3125 137.05078125 C-40.30324339 138.33097195 -43.08352911 138.79019763 -46.3125 139.05078125 C-47.488125 139.17453125 -48.66375 139.29828125 -49.875 139.42578125 C-55.79645571 138.77980426 -60.37360614 136.48361611 -64.25 131.92578125 C-68.37318321 126.17831374 -67.89607079 120.98497537 -67.3125 114.05078125 C-62.57777238 86.09145527 -44.94336774 59.81798346 -23.5 41.73828125 C-22.59314453 40.97064453 -22.59314453 40.97064453 -21.66796875 40.1875 C-21.22066406 39.81238281 -20.77335937 39.43726563 -20.3125 39.05078125 C-21.73260013 35.13301759 -23.5979438 31.84779522 -25.875 28.36328125 C-30.0957307 21.87862431 -31.08860585 17.85495673 -30.3125 10.05078125 C-28.67374874 5.17015249 -25.56218807 1.88390663 -21.3125 -0.94921875 C-14.62344514 -3.1789037 -6.47757717 -2.84743496 0 0 Z " fill="#D9FEBE" transform="translate(193.3125,52.94921875)"/>
<path d="M0 0 C1.8125 1.125 1.8125 1.125 3 3 C3.44810134 6.67646783 3.48067809 8.37021786 1.19921875 11.359375 C0.37035156 12.14828125 -0.45851563 12.9371875 -1.3125 13.75 C-17.92779606 31.09486288 -30.4050701 57.86467512 -30.3125 82.0625 C-30.32861328 82.90876953 -30.34472656 83.75503906 -30.36132812 84.62695312 C-30.36581798 90.45029668 -29.26593222 94.64416021 -27 100 C-26.60191594 102.98563046 -26.58875267 104.27426942 -28.0625 106.875 C-30 108 -30 108 -33.25 108.0625 C-38.86996023 106.47017793 -42.22937069 103.83821462 -45.328125 98.87109375 C-52.08022818 84.43966195 -47.60904058 65.34577738 -42.66113281 50.85058594 C-38.11778136 38.3550316 -31.86510287 26.94448666 -23 17 C-22.36449219 16.23429687 -21.72898437 15.46859375 -21.07421875 14.6796875 C-7.84094144 -0.96687285 -7.84094144 -0.96687285 0 0 Z " fill="#E7FED6" transform="translate(278,1)"/>
<path d="M0 0 C5.3614176 1.60742688 9.29710159 8.11026683 12.84765625 12.31640625 C17.19107575 17.42465837 21.59731367 22.46101183 26.109375 27.421875 C27.85323626 29.35759526 29.54036774 31.32747275 31.22265625 33.31640625 C34.876159 37.51276436 38.79788773 41.43857448 42.72265625 45.37890625 C43.3686377 46.02947998 44.01461914 46.68005371 44.68017578 47.3503418 C48.01220934 50.67163795 51.38852905 53.72433238 55.09765625 56.62890625 C56.99483838 59.21597279 57.10776628 60.38626542 56.97265625 63.62890625 C55.93953897 67.17102264 55.10168485 68.49446487 52.09765625 70.62890625 C48.97265625 71.87890625 48.97265625 71.87890625 45.09765625 71.62890625 C37.53721112 66.75637786 31.19142222 60.00190477 24.91015625 53.62890625 C24.06001953 52.778125 23.20988281 51.92734375 22.33398438 51.05078125 C17.38642093 46.06883319 12.65895345 40.96478981 8.09765625 35.62890625 C7.07788566 34.46391263 6.05708225 33.29982212 5.03515625 32.13671875 C-10.78812885 13.98934748 -10.78812885 13.98934748 -11.08984375 7.75390625 C-8.80557643 1.74267645 -6.51663152 0.22024401 0 0 Z " fill="#FFFDFE" transform="translate(139.90234375,363.37109375)"/>
<path d="M0 0 C10.69538184 5.17982618 10.69538184 5.17982618 13.11328125 10.015625 C13.47249563 13.82329742 13.64463714 16.17273813 11.57421875 19.45703125 C8.51069182 22.64212671 5.29049609 24.55431541 1.42578125 26.640625 C0.70463135 27.03306396 -0.01651855 27.42550293 -0.75952148 27.82983398 C-12.34909466 34.02757147 -23.36659767 36.26668432 -36.51171875 32.828125 C-40.6393991 31.34216007 -43.39546982 29.7524984 -45.88671875 26.015625 C-46.71890758 23.09693372 -46.69660742 20.93600835 -45.88671875 18.015625 C-41.83116586 13.33602578 -36.11802672 10.04006792 -30.88671875 6.828125 C-30.21382812 6.40337891 -29.5409375 5.97863281 -28.84765625 5.54101562 C-19.73696348 -0.11359388 -10.76514911 -3.67093041 0 0 Z " fill="#FFD8DF" transform="translate(270.88671875,306.984375)"/>
<path d="M0 0 C3.91486761 0.22159628 6.29504641 0.42490628 9.375 2.9375 C13.05825582 7.61240162 12.25999547 12.56850452 12.3125 18.3125 C12.34150391 19.35857422 12.37050781 20.40464844 12.40039062 21.48242188 C12.46444683 29.22336828 12.46444683 29.22336828 10.10546875 33.16796875 C7.38969565 35.53104404 6.31540035 35.95834335 2.6875 36.4375 C-1 36 -1 36 -3.69140625 33.7265625 C-7.31175149 29.05882178 -6.72692121 23.58733251 -6.625 17.9375 C-6.64433594 16.86177734 -6.66367188 15.78605469 -6.68359375 14.67773438 C-6.62939003 5.93467511 -6.62939003 5.93467511 -3.5234375 2.81640625 C-2.69070312 2.21699219 -1.85796875 1.61757812 -1 1 C-0.67 0.67 -0.34 0.34 0 0 Z " fill="#E84957" transform="translate(253,241)"/>
<path d="M0 0 C0.639375 -0.01289063 1.27875 -0.02578125 1.9375 -0.0390625 C5.52341291 1.11549279 6.81070604 2.53445295 9 5.625 C9.6672696 9.6605008 9.56110331 13.60859089 9.4375 17.6875 C9.43169922 18.77611328 9.42589844 19.86472656 9.41992188 20.98632812 C9.27919141 30.13380829 9.27919141 30.13380829 7 33.625 C3.33218328 36.07021115 0.26546767 36.34737759 -4 35.625 C-6.43119623 33.75484906 -7.64069173 32.34361655 -9 29.625 C-9.32248898 25.69430842 -9.32442843 21.75478381 -9.375 17.8125 C-9.43107422 16.1718457 -9.43107422 16.1718457 -9.48828125 14.49804688 C-9.57664294 6.44240623 -9.57664294 6.44240623 -6.7265625 2.40234375 C-2.94996991 -0.0594752 -2.94996991 -0.0594752 0 0 Z " fill="#E84857" transform="translate(377,229.375)"/>
<path d="M0 0 C0.639375 -0.02449219 1.27875 -0.04898438 1.9375 -0.07421875 C5.437109 1.21825048 7.37531905 3.44243001 9 6.6875 C9.72071701 10.53906181 9.69911381 14.27923198 9.625 18.1875 C9.65400391 19.71697266 9.65400391 19.71697266 9.68359375 21.27734375 C9.65344927 25.91356473 9.62156636 29.59989629 6.71484375 33.3671875 C3.0787497 36.47487076 3.0787497 36.47487076 -0.0625 36.3125 C-4.29509682 35.64065923 -5.51129559 35.07213799 -8 31.6875 C-10.04905049 27.58939901 -9.31721725 22.37942814 -9.375 17.875 C-9.43107422 16.2343457 -9.43107422 16.2343457 -9.48828125 14.56054688 C-9.57665364 6.50393058 -9.57665364 6.50393058 -6.7265625 2.46875 C-2.92060279 -0.01766494 -2.92060279 -0.01766494 0 0 Z " fill="#E84857" transform="translate(135,229.3125)"/>
<path d="M0 0 C0.639375 -0.00386719 1.27875 -0.00773437 1.9375 -0.01171875 C5.50047632 1.19618421 6.80840187 2.59745942 9 5.6875 C9.66732912 9.72298119 9.56110288 13.67110482 9.4375 17.75 C9.43169922 18.83861328 9.42589844 19.92722656 9.41992188 21.04882812 C9.27919141 30.19630829 9.27919141 30.19630829 7 33.6875 C3.85543449 35.78387701 1.83905324 36.05306445 -1.8671875 36.34375 C-4.64335887 35.48954342 -6.23171212 34.00839286 -7.98779297 31.72460938 C-10.1007791 27.4721356 -9.7131335 22.83507325 -9.625 18.1875 C-9.64433594 17.16785156 -9.66367187 16.14820313 -9.68359375 15.09765625 C-9.65344091 10.46014971 -9.62302144 6.77697847 -6.7109375 3.01171875 C-3.06132868 -0.11726864 -3.06132868 -0.11726864 0 0 Z " fill="#E84857" transform="translate(320,265.3125)"/>
<path d="M0 0 C0.7528125 -0.00128906 1.505625 -0.00257813 2.28125 -0.00390625 C5.3636681 0.78297865 6.50366025 2.10645478 8.5 4.5625 C9.32535857 8.83509989 9.10269491 13.15658555 9.0625 17.5 C9.08634766 18.68013672 9.11019531 19.86027344 9.13476562 21.07617188 C9.11839782 30.71681126 9.11839782 30.71681126 6.18359375 33.83984375 C2.61040707 36.13354874 0.66962413 36.30707574 -3.5 35.5625 C-6.18359375 33.8046875 -6.18359375 33.8046875 -8.5 30.5625 C-9.22414963 26.3847137 -9.1519199 22.29181978 -9.0625 18.0625 C-9.07345703 16.93457031 -9.08441406 15.80664062 -9.09570312 14.64453125 C-9.05364257 9.9057092 -9.02228384 6.52913223 -6.74609375 2.31640625 C-4.24370236 0.36236497 -3.14166703 -0.09145264 0 0 Z " fill="#E84857" transform="translate(191.5,265.4375)"/>
<path d="M0 0 C4.26010225 0.49155026 5.52468168 2.18248426 8.25 5.375 C8.58 5.705 8.91 6.035 9.25 6.375 C9.32325436 9.0736905 9.34222351 11.74002556 9.3125 14.4375 C9.291875 17.056875 9.27125 19.67625 9.25 22.375 C3.64 25.015 -1.97 27.655 -7.75 30.375 C-9.68118218 26.51263565 -9.06534465 21.81158819 -9.125 17.5625 C-9.16238281 16.56412109 -9.19976562 15.56574219 -9.23828125 14.53710938 C-9.32733669 7.11087518 -9.32733669 7.11087518 -6.2890625 3.23828125 C-5.45117188 2.62339844 -4.61328125 2.00851562 -3.75 1.375 C-2.75 0.375 -2.75 0.375 0 0 Z " fill="#E84958" transform="translate(376.75,314.625)"/>
</svg>
